<?xml version="1.0" encoding="utf-8"?>
<!-- Generator: Adobe Illustrator 16.0.4, SVG Export Plug-In . SVG Version: 6.00 Build 0)  -->
<!DOCTYPE svg PUBLIC "-//W3C//DTD SVG 1.1//EN" "http://www.w3.org/Graphics/SVG/1.1/DTD/svg11.dtd">
<svg version="1.1" id="Layer_1" xmlns="http://www.w3.org/2000/svg" xmlns:xlink="http://www.w3.org/1999/xlink" x="0px" y="0px"
	 width="400px" height="261px" viewBox="0 0 400 261" enable-background="new 0 0 400 261" xml:space="preserve">
<path fill="#939598" stroke="#939598" stroke-width="2" stroke-miterlimit="10" d="M357.786,71.942
	c-15.796,15.794-41.403,15.794-57.198,0c-15.798-15.794-15.792-41.399,0.004-57.192c15.791-15.796,41.398-15.794,57.188-0.002
	C373.578,30.541,373.578,56.15,357.786,71.942z"/>
<path fill="#939598" stroke="#939598" stroke-width="2" stroke-miterlimit="10" d="M190.672,116.396
	c-4.457,3.671-11.255-2.862-18.595-11.783l0,0c-7.343-8.918-12.448-16.847-7.989-20.519l66.292-54.571
	c4.46-3.67,11.261,2.862,18.603,11.783l0,0c7.344,8.918,12.448,16.845,7.987,20.518L190.672,116.396z"/>
<path fill="#939598" stroke="#939598" stroke-miterlimit="10" d="M156.12,143.849c-20.753,5.8-30.524,8.376-40.661-3.941
	c-10.142-12.319,28.655,11.729,14.837-27.429c-4.838-13.71,19.629-21.61,29.769-9.29
	C170.202,115.502,167.239,140.743,156.12,143.849z"/>
<path fill="#939598" stroke="#939598" stroke-width="2" stroke-miterlimit="10" d="M225.533,160.46
	c-5.324,5.32-14.135,0.893-22.307-7.278l0,0c-8.173-8.168-12.601-16.986-7.28-22.307l76.722-76.719
	c5.322-5.323,103.309-12.752,122.833-7.866l1.992,3.88c-4.383,21.105-89.923,28.248-95.24,33.568L225.533,160.46z"/>
<path fill="#939598" stroke="#939598" stroke-width="2" stroke-miterlimit="10" d="M174.337,151
	c5.32-5.321,14.134-0.892,22.306,7.277l0,0c8.172,8.169,12.599,16.987,7.28,22.307L127.2,257.303
	c-5.323,5.324-103.311-3.981-122.834-8.869l-1.993-3.877c4.383-21.104,89.921-11.515,95.242-16.835L174.337,151z"/>
</svg>
