<svg width="400" height="400" xmlns="http://www.w3.org/2000/svg" version="1.0" preserveAspectRatio="xMidYMid meet">
 <g>
  <title>Layer 1</title>
  <g transform="translate(0.000000,400.000000) scale(0.100000,-0.100000)" fill="#000000" id="svg_1">
   <path d="m3190,3266c-111,-31 -214,-116 -263,-216c-29,-61 -49,-166 -40,-210c4,-25 2,-30 -18,-34c-146,-30 -95,10 -517,-410c-211,-209 -390,-393 -398,-408c-20,-38 -18,-61 10,-116c24,-47 121,-148 165,-171c43,-23 81,-30 109,-20c15,5 203,185 417,399c437,435 424,426 527,395c132,-39 280,-5 388,90c14,12 72,37 130,55c133,41 208,79 248,125c35,39 39,61 19,89c-11,15 -36,20 -132,27c-67,5 -122,14 -126,20c-3,6 -9,34 -12,62c-13,106 -107,236 -208,287c-94,49 -205,62 -299,36z" id="svg_2"/>
   <path d="m2249,2963c-391,-317 -606,-499 -614,-520c-13,-33 28,-109 110,-206c70,-82 107,-110 145,-110c20,0 114,72 366,280l339,280l-1,45c0,37 -8,56 -46,109c-47,66 -159,179 -176,179c-6,0 -17,3 -25,6c-9,3 -48,-21 -98,-63z" id="svg_3"/>
   <path d="m1455,2335c-5,-2 -22,-6 -37,-9c-15,-4 -43,-20 -63,-37c-40,-36 -44,-61 -20,-149c23,-84 20,-136 -10,-165c-21,-22 -33,-25 -95,-25c-47,0 -70,-4 -70,-12c0,-6 20,-30 44,-54c60,-57 111,-68 225,-48c46,8 109,25 139,37c47,19 59,29 79,67c63,125 21,327 -78,372c-34,16 -95,28 -114,23z" id="svg_4"/>
   <path d="m1378,1433l-397,-397l-283,-7c-286,-7 -399,-17 -504,-45c-110,-28 -166,-83 -138,-135c12,-24 23,-28 120,-43c279,-43 690,-79 926,-80l178,-1l401,401c375,375 401,403 401,436c0,49 -35,113 -96,174c-62,62 -121,94 -173,94c-36,0 -53,-15 -435,-397z" id="svg_5"/>
  </g>
 </g>

</svg>