<?xml version="1.0" encoding="utf-8"?>
<!-- Generator: Adobe Illustrator 16.0.4, SVG Export Plug-In . SVG Version: 6.00 Build 0)  -->
<!DOCTYPE svg PUBLIC "-//W3C//DTD SVG 1.1//EN" "http://www.w3.org/Graphics/SVG/1.1/DTD/svg11.dtd">
<svg version="1.1" id="Layer_1" xmlns="http://www.w3.org/2000/svg" xmlns:xlink="http://www.w3.org/1999/xlink" x="0px" y="0px"
	 width="400px" height="261px" viewBox="0 0 400 261" enable-background="new 0 0 400 261" xml:space="preserve">
<path fill="#FDCD08" stroke="#F9B517" stroke-width="2" stroke-miterlimit="10" d="M357.887,72.484
	c-15.67,15.667-41.07,15.667-56.739,0c-15.67-15.667-15.666-41.066,0.004-56.733c15.665-15.67,41.065-15.668,56.731-0.003
	C373.551,31.416,373.551,56.819,357.887,72.484z"/>
<path fill="#FDCD08" stroke="#F9B517" stroke-width="2" stroke-miterlimit="10" d="M192.113,116.582
	c-4.421,3.64-11.165-2.84-18.446-11.689l0,0c-7.283-8.846-12.349-16.711-7.924-20.354l65.759-54.132
	c4.424-3.64,11.173,2.84,18.453,11.689l0,0c7.286,8.847,12.349,16.709,7.926,20.352L192.113,116.582z"/>
<path fill="#F4921F" d="M157.837,143.812c-20.586,5.752-30.277,8.31-40.333-3.909c-10.06-12.22,28.426,11.635,14.717-27.208
	c-4.798-13.602,19.472-21.436,29.53-9.214C171.807,115.695,168.869,140.732,157.837,143.812z"/>
<path fill="#FDCD08" stroke="#F9B517" stroke-width="2" stroke-miterlimit="10" d="M226.694,160.292
	c-5.279,5.275-14.02,0.886-22.128-7.22l0,0c-8.105-8.102-12.5-16.852-7.222-22.128l76.108-76.104
	c5.279-5.28,102.479-12.649,121.845-7.802l1.978,3.848c-4.349,20.936-89.199,28.021-94.476,33.298L226.694,160.292z"/>
<path fill="#FDCD08" stroke="#F9B517" stroke-width="2" stroke-miterlimit="10" d="M175.909,150.907
	c5.278-5.279,14.02-0.884,22.126,7.218l0,0c8.107,8.105,12.499,16.85,7.223,22.131l-76.109,76.1
	c-5.279,5.281-102.481-3.949-121.848-8.795l-1.977-3.85c4.348-20.936,89.2-11.422,94.479-16.697L175.909,150.907z"/>
</svg>
