<svg width="460" height="460" xmlns="http://www.w3.org/2000/svg" xml:space="preserve" enable-background="new 0 0 400 261" version="1.1">

 <g>
  <title>Layer 1</title>
  <ellipse stroke-width="0" stroke="#000" ry="230" rx="230" id="svg_6" cy="229.99998" cx="230.00033" fill="#ffffff"/>
  <path id="svg_1" d="m387.88733,168.98436c-15.67,15.667 -41.07,15.667 -56.739,0c-15.67,-15.667 -15.666,-41.066 0.004,-56.733c15.665,-15.67 41.065,-15.668 56.731,-0.003c15.668,15.668 15.668,41.071 0.004,56.736z" stroke-miterlimit="10" stroke-width="2" stroke="#F9B517" fill="#FDCD08"/>
  <path id="svg_2" d="m222.11333,213.08236c-4.421,3.64 -11.165,-2.84 -18.446,-11.689l0,0c-7.283,-8.846 -12.349,-16.711 -7.924,-20.354l65.759,-54.132c4.424,-3.64 11.173,2.84 18.453,11.689l0,0c7.286,8.847 12.349,16.709 7.926,20.352l-65.768,54.134z" stroke-miterlimit="10" stroke-width="2" stroke="#F9B517" fill="#FDCD08"/>
  <path id="svg_3" d="m187.83733,240.31236c-20.586,5.752 -30.277,8.31 -40.333,-3.909c-10.06,-12.22 28.426,11.635 14.717,-27.208c-4.798,-13.602 19.472,-21.436 29.53,-9.214c10.056,12.214 7.118,37.251 -3.914,40.331z" fill="#F4921F"/>
  <path id="svg_4" d="m256.69433,257.29236c-5.279,5.275 -14.02,0.886 -22.128,-7.22l0,0c-8.105,-8.102 -12.5,-16.852 -7.222,-22.128l76.108,-76.104c5.279,-5.28 102.479,-12.649 121.845,-7.802l1.978,3.848c-4.349,20.936 -89.199,28.021 -94.476,33.298l-76.105,76.108z" stroke-miterlimit="10" stroke-width="2" stroke="#F9B517" fill="#FDCD08"/>
  <path id="svg_5" d="m205.90933,247.40736c5.278,-5.279 14.02,-0.884 22.126,7.218l0,0c8.107,8.105 12.499,16.85 7.223,22.131l-76.109,76.1c-5.279,5.281 -102.481,-3.949 -121.848,-8.795l-1.977,-3.85c4.348,-20.936 89.2,-11.422 94.479,-16.697l76.106,-76.107z" stroke-miterlimit="10" stroke-width="2" stroke="#F9B517" fill="#FDCD08"/>
 </g>
</svg>