<svg width="97.893"
     height="49.893"
     version="1.1"
     viewBox="0 0 97.893 49.893"
     xmlns="http://www.w3.org/2000/svg">
    <g transform="matrix(1.3333 0 0 -1.3333 0 49.893)">
        <g transform="scale(.1)">
            <path
                    d="m678.09 148.1c30.996 0 56.133-25.129 56.133-56.129v-35.856c0-30.996-25.137-56.113-56.133-56.113h-83.777c-30.997 0-56.125 25.117-56.125 56.113v22.144c0 38.566-31.27 69.84-69.844 69.84h-398.5c-38.57 0-69.844 31.265-69.844 69.847v86.368c0 38.574 31.273 69.847 69.844 69.847h398.5c38.574 0 69.844-31.273 69.844-69.847v-86.368c0-38.582 31.269-69.847 69.855-69.847h70.047"
                    fill="#20180e"/>
            <g
                    fill="#fff">
                <path
                        d="m120.32 240.43c0 5.238-6.582 7.39-15.046 9.945l-16.934 5.109c-12.234 3.625-22.984 12.231-22.984 27.286 0 18.144 16.266 30.507 38.304 30.507 17.071 0 37.227-5.914 37.227-16.804 0-6.719-3.363-10.883-9.543-10.883-3.227 0-6.047 1.074-9.27 2.148-4.707 1.75-10.484 3.766-18.414 3.766-6.4529 0-14.515-2.555-14.515-7.66 0-4.571 3.6289-6.719 11.558-9.137l18.949-5.781c12.77-3.899 24.461-11.559 24.461-29.168 0-18.817-17.605-30.91-40.183-30.91-18.949 0-41.129 5.914-41.129 16.8 0 6.719 3.8984 10.883 10.621 10.883 3.4922 0 6.7187-0.933 10.348-2.152 5.1055-1.742 11.152-3.758 20.16-3.758 7.66 0 16.39 3.488 16.39 9.809"/>
                <path
                        d="m235.5 301.18c0 7.656 4.031 11.554 11.559 11.554 7.656 0 11.691-3.898 11.691-11.554v-44.348c0-29.168-19.492-47.984-46.102-47.984-26.48 0-45.968 18.816-45.968 47.984v44.348c0 7.656 4.039 11.554 11.562 11.554 7.656 0 11.692-3.898 11.692-11.554v-44.348c0-15.73 9.542-25.137 22.714-25.137 13.305 0 22.852 9.407 22.852 25.137v44.348"/>
                <path
                        d="m309.28 289.62v-27.012h19.625c8.871 0 15.856 4.028 15.856 13.438 0 9.539-6.985 13.574-15.856 13.574zm21.242-48.121h-21.242v-20.563c0-7.66-4.031-11.554-11.687-11.554-7.528 0-11.563 3.894-11.563 11.554v79.297c0 7.66 4.035 11.563 11.563 11.563h33.328c22.316 0 37.766-14.653 37.766-35.75 0-12.903-5.918-22.723-15.86-27.961l10.75-21.504c1.074-2.148 1.477-4.16 1.477-6.18 0-6.718-7.657-11.019-13.438-11.019-4.297 0-7.383 2.551-9.539 7.386l-11.555 24.731"/>
                <path
                        d="m417.07 245.94v-24.997c0-7.66-3.886-11.554-11.554-11.554-7.528 0-11.551 3.894-11.551 11.554v79.297c0 7.66 4.023 11.563 11.551 11.563h55.644c7.395 0 11.016-3.77 11.016-11.024 0-7.39-3.621-11.152-11.016-11.152h-44.09v-21.512h27.559c7.391 0 11.016-3.761 11.016-11.148 0-7.262-3.625-11.027-11.016-11.027h-27.559"/>
            </g>
        </g>
    </g>
</svg>